<?xml version="1.0" standalone="no"?>
<!DOCTYPE svg PUBLIC "-//W3C//DTD SVG 1.1//EN" "http://www.w3.org/Graphics/SVG/1.1/DTD/svg11.dtd" >
<svg xmlns="http://www.w3.org/2000/svg" xmlns:xlink="http://www.w3.org/1999/xlink" version="1.1">
<metadata></metadata>
<defs>
<font id="made_tommylight" horiz-adv-x="1308" >
<font-face units-per-em="2048" ascent="1638" descent="-410" />
<missing-glyph horiz-adv-x="573" />
<glyph horiz-adv-x="0" />
<glyph horiz-adv-x="682" />
<glyph unicode=" "  horiz-adv-x="573" />
<glyph unicode="&#x09;" horiz-adv-x="573" />
<glyph unicode="&#xa0;" horiz-adv-x="573" />
<glyph unicode="!" horiz-adv-x="499" d="M164 59q0 35 25.5 60.5t60.5 25.5t60.5 -25.5t25.5 -60.5t-25.5 -60.5t-60.5 -25.5t-60.5 25.5t-25.5 60.5zM197 1434h108l-18 -1045h-74z" />
<glyph unicode="&#x22;" horiz-adv-x="698" d="M143 977v457h93v-457h-93zM463 977v457h92v-457h-92z" />
<glyph unicode="#" horiz-adv-x="1333" d="M102 469l15 90h256l53 318h-260l14 90h260l62 374h92l-62 -374h353l61 374h92l-61 -374h254l-12 -90h-256l-54 -318h260l-14 -90h-260l-61 -379h-95l64 379h-352l-62 -379h-92l61 379h-256zM465 559h352l51 318h-350z" />
<glyph unicode="$" horiz-adv-x="1110" d="M82 301l104 33q28 -99 127 -174.5t248 -75.5q162 0 259.5 81.5t97.5 219.5q0 50 -17 90t-43.5 66.5t-73.5 50t-92.5 38.5t-116.5 34q-52 14 -85 24t-83.5 29t-83.5 38.5t-71.5 50t-60.5 65.5t-37 83t-15 105q0 165 112.5 277.5t274.5 121.5v201h90v-205 q127 -15 218.5 -91t130.5 -204l-107 -26q-70 217 -307 217q-125 0 -213 -81.5t-88 -209.5q0 -51 17 -91.5t44.5 -69t75 -52.5t96.5 -40.5t121 -35.5q53 -14 86 -24t82.5 -29t81 -37.5t68 -48.5t57.5 -63.5t35 -80.5t14 -102q0 -70 -24 -136.5t-71.5 -125.5t-129.5 -99 t-187 -49v-202h-90v202q-170 10 -289 105t-155 221z" />
<glyph unicode="%" horiz-adv-x="1792" d="M123 1081q0 131 92.5 223.5t222.5 92.5t223 -92.5t93 -223.5q0 -130 -92.5 -222.5t-223.5 -92.5q-130 0 -222.5 92t-92.5 223zM213 1081q0 -93 66 -159t159 -66t159.5 66t66.5 159q0 92 -67 158t-159 66t-158.5 -66t-66.5 -158zM369 0l946 1434h108l-946 -1434h-108z M1036 352q0 130 93 223t223 93q131 0 224 -93t93 -223t-93 -222.5t-224 -92.5t-223.5 92.5t-92.5 222.5zM1128 352q0 -94 66 -159.5t158 -65.5q94 0 159.5 65.5t65.5 159.5q0 93 -66 159.5t-159 66.5q-92 0 -158 -67t-66 -159z" />
<glyph unicode="&#x26;" horiz-adv-x="1425" d="M82 379q0 298 332 440q-107 171 -107 295q0 147 99 245.5t243 98.5q77 0 140 -25t102.5 -66.5t60.5 -92.5t21 -105q0 -65 -22 -120t-55.5 -93.5t-87.5 -75t-103.5 -59.5t-118.5 -51q56 -65 174 -180q68 -65 244 -223q70 123 88 262l108 -15q-22 -169 -113 -323 q199 -176 338 -291h-170q-62 52 -231 201q-180 -228 -465 -228q-203 0 -340 116t-137 290zM190 379q0 -128 105.5 -211.5t263.5 -83.5q133 0 221 49.5t162 140.5q-141 125 -258 236q-144 141 -207 217q-57 -20 -105.5 -50t-91 -72t-66.5 -100t-24 -126zM416 1114 q0 -60 27 -120.5t75 -135.5q183 72 264.5 138t81.5 173q0 70 -58.5 125.5t-156.5 55.5q-104 0 -168.5 -65.5t-64.5 -170.5z" />
<glyph unicode="'" horiz-adv-x="376" d="M143 977v457h90v-457h-90z" />
<glyph unicode="(" horiz-adv-x="667" d="M164 717q0 119 18.5 232.5t43.5 196.5t68 174.5t74.5 146t80.5 132.5l75 -57q-53 -85 -91 -158t-78.5 -177t-61.5 -228t-21 -262q0 -112 15.5 -218t38.5 -186.5t58.5 -162.5t66.5 -137.5t73 -121.5l-75 -57q-48 76 -80 131t-75 146.5t-68 175t-43.5 197t-18.5 233.5z" />
<glyph unicode=")" horiz-adv-x="667" d="M143 -109q53 83 91 157t77.5 177.5t60.5 228t21 263.5q0 138 -21 262t-61 228t-77.5 177t-90.5 158l76 57q49 -78 80.5 -132.5t74.5 -146t68 -174.5t43.5 -196.5t18.5 -232.5q0 -120 -18.5 -233.5t-43.5 -197t-68 -175t-75 -146.5t-80 -131z" />
<glyph unicode="*" horiz-adv-x="915" d="M92 1128l33 103l293 -111l-15 314h109l-16 -314l292 111l35 -103l-303 -81l197 -244l-88 -66l-172 262l-170 -262l-90 66l196 244z" />
<glyph unicode="+" horiz-adv-x="1130" d="M164 555v109h346v348h111v-348h346v-109h-346v-346h-111v346h-346z" />
<glyph unicode="," horiz-adv-x="419" d="M41 -193l170 361l106 -62l-217 -333z" />
<glyph unicode="-" horiz-adv-x="983" d="M164 555v109h655v-109h-655z" />
<glyph unicode="." horiz-adv-x="376" d="M102 59q0 35 25.5 60.5t60.5 25.5t60.5 -25.5t25.5 -60.5t-25.5 -60.5t-60.5 -25.5t-60.5 25.5t-25.5 60.5z" />
<glyph unicode="/" horiz-adv-x="911" d="M102 -199l592 1829h115l-592 -1829h-115z" />
<glyph unicode="0" horiz-adv-x="1267" d="M102 717q0 110 19 214.5t61.5 200.5t103.5 168t151 115t198 43t197.5 -43t150 -114.5t102.5 -168t61 -201t19 -214.5q0 -111 -19 -216t-61 -201.5t-102.5 -168.5t-150 -115t-197.5 -43t-198 43t-151 115t-103.5 168.5t-61.5 201.5t-19 216zM211 717q0 -89 13.5 -175 t45 -170t79 -147t121.5 -102t165 -39t164.5 39t120.5 102t79 147t45 170t13 175t-13 175t-45 170t-79 147t-120.5 102t-164.5 39t-165 -39t-121.5 -102t-79 -147t-45 -170t-13.5 -175z" />
<glyph unicode="1" horiz-adv-x="886" d="M82 1147l426 287h92v-1434h-108v1288l-353 -235z" />
<glyph unicode="2" horiz-adv-x="1083" d="M113 0v109q64 71 234 267t188 218q142 168 186 235q86 128 86 234q0 127 -79 207t-191 80q-121 0 -205.5 -72t-108.5 -201l-108 21q34 166 148.5 263t273.5 97q167 0 272.5 -115.5t105.5 -279.5q0 -66 -18 -127t-60 -127t-78.5 -114t-105.5 -131q-23 -28 -35 -42 q-3 -4 -51.5 -60.5t-101.5 -118.5t-113.5 -131t-91.5 -103h701v-109h-848z" />
<glyph unicode="3" horiz-adv-x="1142" d="M102 297l107 22q19 -97 122.5 -166t248.5 -69q67 0 128.5 19t111.5 56.5t80 100t30 141.5q0 77 -27.5 134t-66.5 87.5t-93.5 48.5t-95.5 22.5t-86 4.5h-106v99h112q51 0 99 13.5t94.5 42.5t75 86t28.5 134q0 117 -79 197t-201 80q-114 0 -197.5 -62t-110.5 -158l-106 21 q34 136 147 221.5t267 85.5q166 0 278.5 -112t112.5 -273q0 -110 -57.5 -191.5t-157.5 -123.5q127 -38 203.5 -127t76.5 -230q0 -102 -39 -185t-104.5 -135t-147 -80t-169.5 -28q-184 0 -317.5 94t-160.5 230z" />
<glyph unicode="4" horiz-adv-x="1249" d="M113 338v111l665 985h154v-985h205v-111h-205v-338h-109v338h-710zM238 449h585v864z" />
<glyph unicode="5" horiz-adv-x="1120" d="M102 297l107 22q19 -97 116.5 -166t227.5 -69q64 0 126 23t114 67.5t84 118t32 164.5q0 85 -29 152.5t-77.5 107.5t-106 61t-118.5 21q-108 0 -190 -43.5t-126 -108.5l-110 27l88 760h702v-111h-610l-62 -532q123 116 308 116q83 0 160.5 -29t140.5 -83.5t101 -142.5 t38 -195q0 -114 -41 -208t-107.5 -153t-148.5 -91t-168 -32q-171 0 -297.5 94.5t-153.5 229.5z" />
<glyph unicode="6" horiz-adv-x="1171" d="M102 457q0 87 32.5 165t92.5 166l439 646h133l-369 -523q84 31 156 31q131 0 242 -65t176 -176.5t65 -243.5q0 -131 -65 -242.5t-176 -176.5t-242 -65t-242.5 65t-176.5 176.5t-65 242.5zM211 457q0 -154 110 -263.5t265 -109.5t265 109.5t110 263.5q0 155 -110 264.5 t-265 109.5t-265 -109.5t-110 -264.5z" />
<glyph unicode="7" horiz-adv-x="1064" d="M113 1323v111h839v-93l-553 -1341h-118l546 1323h-714z" />
<glyph unicode="8" horiz-adv-x="1183" d="M102 399q0 129 76.5 227.5t204.5 143.5q-96 46 -152.5 127.5t-56.5 185.5q0 161 120 268t298 107q177 0 296.5 -107t119.5 -268q0 -104 -56.5 -185.5t-152.5 -127.5q128 -46 205 -143.5t77 -227.5q0 -185 -138.5 -305.5t-350.5 -120.5t-351 120.5t-139 305.5zM213 399 q0 -138 106.5 -226.5t272.5 -88.5t272.5 88.5t106.5 226.5t-106.5 227t-272.5 89t-272.5 -89t-106.5 -227zM283 1083q0 -116 88 -191t221 -75t220 75t87 191q0 115 -87.5 191t-219.5 76t-220.5 -76t-88.5 -191z" />
<glyph unicode="9" horiz-adv-x="1171" d="M102 975q0 131 65 242t176.5 176t242.5 65t242 -65t176 -176t65 -242q0 -86 -33 -165.5t-92 -166.5l-438 -643h-133l368 522q-73 -30 -155 -30q-131 0 -242.5 65t-176.5 176t-65 242zM211 975q0 -155 110 -265t265 -110t265 110t110 265t-110 265t-265 110t-265 -110 t-110 -265z" />
<glyph unicode=":" horiz-adv-x="458" d="M143 59q0 35 25.5 60.5t60.5 25.5t60.5 -25.5t25.5 -60.5t-25.5 -60.5t-60.5 -25.5t-60.5 25.5t-25.5 60.5zM143 977q0 35 25.5 60.5t60.5 25.5t60.5 -25.5t25.5 -60.5t-25.5 -60.5t-60.5 -25.5t-60.5 25.5t-25.5 60.5z" />
<glyph unicode=";" horiz-adv-x="507" d="M61 -193l172 361l107 -62l-217 -333zM195 977q0 35 25.5 60.5t60.5 25.5t59.5 -25.5t24.5 -60.5t-24.5 -60.5t-59.5 -25.5t-60.5 25.5t-25.5 60.5z" />
<glyph unicode="&#x3c;" horiz-adv-x="1056" d="M164 504v119l729 325v-119l-596 -266l596 -266v-119z" />
<glyph unicode="=" horiz-adv-x="1093" d="M164 391v109h766v-109h-766zM164 719v108h766v-108h-766z" />
<glyph unicode="&#x3e;" horiz-adv-x="1058" d="M164 178v119l598 266l-598 266v119l731 -325v-119z" />
<glyph unicode="?" horiz-adv-x="894" d="M61 1151q38 141 144 224t244 83q160 0 272.5 -111t112.5 -268q0 -56 -12 -103.5t-39 -90.5t-47.5 -68.5t-59.5 -68.5q-41 -45 -62.5 -72t-49.5 -73t-41.5 -98t-14.5 -116h-109q1 78 17.5 143t50 120.5t58 87t69.5 81.5q36 39 52.5 60t38.5 55t31 68t9 75q0 112 -81 191.5 t-195 79.5q-111 0 -182 -65t-99 -159zM367 59q0 35 25.5 60.5t60.5 25.5t60.5 -25.5t25.5 -60.5t-25.5 -60.5t-60.5 -25.5t-60.5 25.5t-25.5 60.5z" />
<glyph unicode="@" horiz-adv-x="1888" d="M123 688q0 68 13.5 141t44.5 151t76.5 150.5t113 137.5t150 113t193 76t236.5 28q172 0 314 -49t233 -126.5t153 -178t88.5 -198t26.5 -192.5q0 -205 -87 -333.5t-234 -128.5q-174 0 -217 198q-48 -87 -133 -137.5t-191 -50.5q-161 0 -269 114.5t-108 280.5 q0 164 116.5 279.5t279.5 115.5q96 0 173 -43t124 -118v151h100v-479q0 -125 35.5 -173t99.5 -48q85 0 153 102.5t68 269.5q0 68 -17 139.5t-52 146t-94.5 140t-136.5 117t-187 81.5t-238 30q-112 0 -210 -25t-171.5 -67.5t-134 -100t-100.5 -121.5t-67.5 -133.5 t-39.5 -134.5t-12 -125q0 -105 26.5 -206.5t84 -194t139.5 -162t201 -111t260 -41.5q251 0 426 140l57 -72q-199 -158 -483 -158q-153 0 -285 45t-225.5 122.5t-160.5 180.5t-99.5 219t-32.5 238zM635 684q0 -120 82.5 -203.5t204.5 -83.5q118 0 202 84t84 203t-84 203 t-202 84t-202.5 -84.5t-84.5 -202.5z" />
<glyph unicode="A" d="M61 0l535 1434h117l534 -1434h-117l-149 401h-653l-150 -401h-117zM369 512h571l-285 764z" />
<glyph unicode="B" horiz-adv-x="1202" d="M164 0v1434h457q195 0 310.5 -103.5t115.5 -267.5q0 -105 -55.5 -183t-157.5 -118v-6q133 -37 209.5 -127.5t76.5 -231.5q0 -190 -131.5 -293.5t-337.5 -103.5h-487zM272 109h379q162 0 261.5 71.5t99.5 216.5q0 99 -49 166.5t-128 97t-184 29.5h-379v-581zM272 797h349 q149 0 233 73t84 193q0 118 -83.5 189t-233.5 71h-349v-526z" />
<glyph unicode="C" horiz-adv-x="1460" d="M102 717q0 151 56 288t152 236.5t231 158t286 58.5q169 0 315.5 -71.5t246.5 -198.5l-93 -60q-86 104 -207 163t-262 59q-172 0 -313.5 -85.5t-221 -230.5t-79.5 -317q0 -173 80 -318t221 -230t313 -85q142 0 263 58.5t206 162.5l93 -61q-101 -126 -247.5 -198.5 t-314.5 -72.5q-201 0 -368 100t-262 270.5t-95 373.5z" />
<glyph unicode="D" horiz-adv-x="1400" d="M164 0v1434h428q202 0 363.5 -93.5t252 -257t90.5 -366.5t-90.5 -366.5t-252 -257t-363.5 -93.5h-428zM272 109h320q261 0 429.5 172t168.5 436q0 262 -168.5 434t-429.5 172h-320v-1214z" />
<glyph unicode="E" horiz-adv-x="1056" d="M164 0v1434h772v-111h-664v-526h617v-109h-617v-579h682v-109h-790z" />
<glyph unicode="F" horiz-adv-x="1067" d="M164 0v1434h801v-111h-693v-545h615v-108h-615v-670h-108z" />
<glyph unicode="G" horiz-adv-x="1632" d="M102 717q0 151 56 288t152 236.5t231 158t286 58.5q169 0 315.5 -71.5t246.5 -198.5l-93 -60q-85 104 -207 163t-262 59q-172 0 -314 -85.5t-222 -230.5t-80 -317q0 -173 80.5 -318t222 -230t313.5 -85t298 78t189 208t66 296h-514v108h623v-774h-72l-26 303 q-77 -155 -221 -242.5t-343 -87.5q-201 0 -368 100t-262 270.5t-95 373.5z" />
<glyph unicode="H" horiz-adv-x="1382" d="M164 0v1434h110v-656h834v656h111v-1434h-111v668h-834v-668h-110z" />
<glyph unicode="I" horiz-adv-x="438" d="M164 0v1434h110v-1434h-110z" />
<glyph unicode="J" horiz-adv-x="1144" d="M82 365l106 20q21 -147 115 -224t234 -77q156 0 244.5 97t88.5 282v971h111v-971q0 -229 -122 -359.5t-322 -130.5q-180 0 -304 104t-151 288z" />
<glyph unicode="K" horiz-adv-x="1163" d="M164 0v1434h110v-689l623 689h145l-639 -709l699 -725h-154l-674 700v-700h-110z" />
<glyph unicode="L" horiz-adv-x="1042" d="M164 0v1434h110v-1325h666v-109h-776z" />
<glyph unicode="M" horiz-adv-x="1759" d="M164 0v1434h108l609 -897l606 897h108v-1434h-108v1229l-582 -864h-51l-582 864v-1229h-108z" />
<glyph unicode="N" horiz-adv-x="1417" d="M164 0v1434h108l873 -1248v1248h108v-1434h-108l-873 1247v-1247h-108z" />
<glyph unicode="O" horiz-adv-x="1652" d="M102 717q0 152 56 288.5t151.5 236t230 158t285.5 58.5t286 -58.5t231 -158t152 -236.5t56 -288q0 -203 -95 -373.5t-262 -270.5t-368 -100t-367.5 100t-261 270.5t-94.5 373.5zM211 717q0 -173 80 -318t221.5 -230t312.5 -85q172 0 314 85t222.5 230t80.5 318 q0 172 -80.5 317t-222.5 230.5t-314 85.5q-171 0 -312.5 -85.5t-221.5 -230.5t-80 -317z" />
<glyph unicode="P" horiz-adv-x="1167" d="M164 0v1434h428q231 0 362 -122t131 -323t-131 -322.5t-362 -121.5h-318v-545h-110zM274 655h318q186 0 284.5 89.5t98.5 244.5t-98.5 244.5t-284.5 89.5h-318v-668z" />
<glyph unicode="Q" horiz-adv-x="1652" d="M102 717q0 152 56 288.5t151.5 236t230 158t285.5 58.5t286 -58.5t231 -158t152 -236.5t56 -288q0 -156 -58.5 -295t-162.5 -242l152 -151l-66 -64l-153 156q-195 -148 -437 -148q-201 0 -367.5 100t-261 270.5t-94.5 373.5zM211 717q0 -173 80 -318t221.5 -230 t312.5 -85q199 0 359 115l-246 247l63 64l252 -252q89 87 138 206t49 253q0 172 -80 317t-221.5 230.5t-313.5 85.5q-171 0 -312.5 -85.5t-221.5 -230.5t-80 -317z" />
<glyph unicode="R" horiz-adv-x="1210" d="M164 0v1434h399q235 0 368.5 -110.5t133.5 -307.5q0 -150 -78.5 -250.5t-224.5 -140.5l387 -625h-127l-375 604q-54 -4 -84 -4h-291v-600h-108zM272 709h291q190 0 291.5 78t101.5 229q0 152 -101 229.5t-292 77.5h-291v-614z" />
<glyph unicode="S" horiz-adv-x="1110" d="M82 301l104 33q28 -99 127 -174.5t248 -75.5q162 0 259.5 81.5t97.5 219.5q0 50 -17 90t-43.5 66.5t-73.5 50t-92.5 38.5t-116.5 34q-52 14 -85 24t-83.5 29t-83.5 38.5t-71.5 50t-60.5 65.5t-37 83t-15 105q0 114 57 206t151 142.5t204 50.5q152 0 260.5 -77.5 t153.5 -221.5l-107 -26q-70 217 -307 217q-125 0 -213 -81.5t-88 -209.5q0 -51 17 -91.5t44.5 -69t75 -52.5t96.5 -40.5t121 -35.5q53 -14 86 -24t82.5 -29t81 -37.5t68 -48.5t57.5 -63.5t35 -80.5t14 -102q0 -59 -16.5 -116t-53 -111t-89.5 -95t-132.5 -65.5t-175.5 -24.5 q-183 0 -312 97.5t-167 230.5z" />
<glyph unicode="T" horiz-adv-x="1097" d="M102 1323v111h893v-111h-393v-1323h-108v1323h-392z" />
<glyph unicode="U" horiz-adv-x="1343" d="M164 535v899h108v-899q0 -208 106 -329.5t294 -121.5q187 0 292 121t105 330v899h111v-899q0 -255 -138 -408.5t-370 -153.5q-233 0 -370.5 153.5t-137.5 408.5z" />
<glyph unicode="V" d="M61 1434h117l475 -1278l477 1278h117l-534 -1434h-117z" />
<glyph unicode="W" horiz-adv-x="2025" d="M61 1434h117l416 -1250l360 1250h117l361 -1250l417 1250h115l-477 -1434h-117l-356 1235l-359 -1235h-114z" />
<glyph unicode="X" horiz-adv-x="1241" d="M61 0l496 743l-459 691h129l394 -592l393 592h129l-457 -691l494 -743h-129l-430 645l-428 -645h-132z" />
<glyph unicode="Y" horiz-adv-x="1361" d="M61 1434h129l492 -816l492 816h126l-565 -918v-516h-108v516z" />
<glyph unicode="Z" horiz-adv-x="1179" d="M102 0v109l824 1214h-789v111h922v-111l-826 -1214h844v-109h-975z" />
<glyph unicode="[" horiz-adv-x="645" d="M164 -199v1829h338v-108h-230v-1610h230v-111h-338z" />
<glyph unicode="\" horiz-adv-x="911" d="M102 1630h115l592 -1829h-115z" />
<glyph unicode="]" horiz-adv-x="645" d="M143 -88h228v1610h-228v108h338v-1829h-338v111z" />
<glyph unicode="^" horiz-adv-x="1064" d="M123 821l348 613h125l346 -613h-125l-285 502l-282 -502h-127z" />
<glyph unicode="_" horiz-adv-x="870" d="M61 -209h748v-108h-748v108z" />
<glyph unicode="`" horiz-adv-x="583" d="M164 1479h129l127 -269h-70z" />
<glyph unicode="a" horiz-adv-x="1067" d="M82 283q0 67 24 119t57 85.5t95 56.5t109.5 34.5t130.5 17.5t129 7t132 1h13q5 0 16.5 -1t16.5 -1v70q0 57 -14 105t-44 89t-84 64.5t-128 23.5q-65 0 -124 -18.5t-93 -39t-78 -54.5l-88 67q78 68 168 111t215 43q174 0 276 -104.5t102 -286.5v-672h-108v160 q-131 -187 -363 -187q-156 0 -258 87.5t-102 222.5zM195 283q0 -95 73.5 -147t173.5 -52q82 0 150 23.5t110 61t66.5 73.5t36.5 71v181h-35q-210 0 -258 -3q-234 -15 -294 -116q-23 -39 -23 -92z" />
<glyph unicode="b" horiz-adv-x="1273" d="M154 0v1434h110v-592q66 104 172 162.5t238 58.5q146 0 265.5 -73t186 -198t66.5 -274q0 -148 -66.5 -273t-186 -198.5t-265.5 -73.5q-131 0 -237 59.5t-173 162.5v-195h-110zM264 518q0 -182 116 -308t294 -126q177 0 292 125.5t115 308.5t-115 309.5t-292 126.5 q-117 0 -211.5 -59t-146.5 -158.5t-52 -218.5z" />
<glyph unicode="c" horiz-adv-x="1134" d="M82 518q0 148 72 273.5t196.5 198.5t272.5 73q139 0 258 -66t192 -178l-98 -53q-58 87 -151 137.5t-201 50.5q-179 0 -304.5 -127.5t-125.5 -308.5q0 -180 125 -307t305 -127q109 0 201.5 50t150.5 136l98 -51q-74 -113 -193 -179.5t-257 -66.5q-148 0 -272.5 73.5 t-196.5 199t-72 272.5z" />
<glyph unicode="d" horiz-adv-x="1271" d="M82 518q0 149 66.5 274t186 198t265.5 73q132 0 238 -58.5t172 -162.5v592h108v-1434h-108v195q-67 -103 -173 -162.5t-237 -59.5q-146 0 -265.5 73.5t-186 198.5t-66.5 273zM193 518q0 -183 115 -308.5t292 -125.5q178 0 294 126t116 308q0 119 -52 218.5t-146.5 158.5 t-211.5 59q-177 0 -292 -126.5t-115 -309.5z" />
<glyph unicode="e" horiz-adv-x="1171" d="M82 518q0 146 65.5 271t184 199.5t262.5 74.5q222 1 364 -167q130 -153 130 -389q0 -22 -1 -44h-892q19 -161 137.5 -270t281.5 -109q206 0 334 149l94 -59q-162 -201 -428 -201q-147 0 -269.5 73.5t-192.5 198.5t-70 273zM195 573h780q-19 170 -125 275.5t-256 105.5 q-159 0 -270 -109.5t-129 -271.5z" />
<glyph unicode="f" horiz-adv-x="688" d="M72 928v110h186v17q0 399 369 399v-108q-136 0 -198 -67t-62 -224v-17h260v-110h-260v-928h-109v928h-186z" />
<glyph unicode="g" horiz-adv-x="1271" d="M82 547q0 142 68.5 260.5t187.5 187t262 68.5q134 0 240.5 -62t167.5 -170v207h110v-929q0 -101 -34 -193.5t-97.5 -166.5t-166 -118.5t-228.5 -44.5q-137 0 -254.5 52.5t-192.5 148.5l93 61q124 -153 354 -153q105 0 187 35.5t130.5 95t73.5 132t25 151.5v151 q-61 -107 -167.5 -169t-240.5 -62q-218 0 -368 150t-150 368zM190 547q0 -173 118.5 -290.5t291.5 -117.5q172 0 290 117.5t118 290.5q0 172 -118 289.5t-290 117.5q-173 0 -291.5 -117.5t-118.5 -289.5z" />
<glyph unicode="h" horiz-adv-x="1177" d="M154 0v1434h108v-560q118 189 344 189q107 0 190.5 -41.5t131.5 -108.5t72 -144t24 -157v-612h-111v612q0 46 -8.5 90.5t-30.5 91t-55.5 81.5t-88.5 57t-124 22q-86 0 -154.5 -33t-108.5 -85t-60.5 -110t-20.5 -114v-612h-108z" />
<glyph unicode="i" horiz-adv-x="417" d="M137 1329q0 30 21 51t51 21t51 -21t21 -51q0 -31 -20.5 -52.5t-51.5 -21.5t-51.5 21.5t-20.5 52.5zM154 0v1038h110v-1038h-110z" />
<glyph unicode="j" horiz-adv-x="417" d="M-84 -268q62 0 106 13t69 34t39.5 55t19 67.5t4.5 80.5v1056h110v-1056q0 -187 -86.5 -274t-261.5 -87v111zM137 1329q0 30 21 51t51 21t51 -21t21 -51q0 -31 -20.5 -52.5t-51.5 -21.5t-51.5 21.5t-20.5 52.5z" />
<glyph unicode="k" horiz-adv-x="999" d="M154 0v1434h108v-891l469 495h143l-477 -503l541 -535h-143l-533 526v-526h-108z" />
<glyph unicode="l" horiz-adv-x="415" d="M154 0v1434h108v-1434h-108z" />
<glyph unicode="m" horiz-adv-x="1732" d="M154 0v1038h110v-157q46 83 118 132.5t167 49.5q118 0 202 -58t128 -153q50 95 134.5 153t192.5 58q91 0 164 -36t117.5 -95.5t68 -132t23.5 -150.5v-649h-111v649q0 57 -14.5 108.5t-44 97t-82 72.5t-121.5 27q-75 0 -132 -30t-89 -78.5t-47.5 -103t-15.5 -111.5v-631 h-111v649q0 57 -14.5 108.5t-44 97t-82 72.5t-121.5 27q-75 0 -132.5 -30t-89.5 -78.5t-47.5 -103t-15.5 -111.5v-631h-110z" />
<glyph unicode="n" horiz-adv-x="1175" d="M154 0v1038h108v-164q118 189 344 189q86 0 157.5 -27.5t118.5 -72.5t79.5 -104.5t46.5 -121.5t14 -125v-612h-109v612q0 46 -8.5 90.5t-30.5 91t-55.5 81.5t-88.5 57t-124 22q-86 0 -154.5 -33t-108.5 -85t-60.5 -110t-20.5 -114v-612h-108z" />
<glyph unicode="o" horiz-adv-x="1241" d="M82 518q0 148 72 273.5t196 198.5t271 73q148 0 272 -73t195 -198.5t71 -273.5q0 -147 -71 -272.5t-195 -199t-272 -73.5q-147 0 -271 73.5t-196 199t-72 272.5zM190 518q0 -180 125.5 -307t305.5 -127t305 127t125 307q0 181 -125.5 308.5t-304.5 127.5 q-180 0 -305.5 -128t-125.5 -308z" />
<glyph unicode="p" horiz-adv-x="1282" d="M164 -395v1433h110v-196q66 104 171.5 162.5t236.5 58.5q147 0 266.5 -73.5t185.5 -198t66 -273.5q0 -148 -66 -273t-185.5 -198.5t-266.5 -73.5q-130 0 -235.5 59.5t-172.5 162.5v-590h-110zM274 518q0 -119 51.5 -218t145.5 -157.5t211 -58.5q178 0 294 126t116 308 q0 119 -52 218.5t-146.5 158.5t-211.5 59q-177 0 -292.5 -126.5t-115.5 -309.5z" />
<glyph unicode="q" horiz-adv-x="1271" d="M82 518q0 149 66.5 274t186 198t265.5 73q132 0 238 -58.5t172 -162.5v196h108v-1433h-108v590q-67 -103 -173 -162.5t-237 -59.5q-146 0 -265.5 73.5t-186 198.5t-66.5 273zM193 518q0 -183 115 -308.5t292 -125.5q178 0 294 126t116 308q0 119 -52 218.5t-146.5 158.5 t-211.5 59q-177 0 -292 -126.5t-115 -309.5z" />
<glyph unicode="r" horiz-adv-x="694" d="M154 0v1038h110v-223q58 111 153 179.5t216 68.5v-127q-173 0 -271 -106.5t-98 -301.5v-528h-110z" />
<glyph unicode="s" horiz-adv-x="886" d="M72 211l102 35q22 -67 94 -114.5t174 -47.5q117 0 185.5 54.5t68.5 146.5q0 80 -55.5 117t-191.5 65q-55 11 -96 22.5t-90.5 35t-81 53t-53.5 77t-22 107.5q0 127 93 214t233 87q118 0 205 -62.5t119 -169.5l-107 -28q-22 72 -78.5 111.5t-138.5 39.5q-94 0 -154.5 -54.5 t-60.5 -137.5q0 -82 62 -122t196 -69q40 -8 65.5 -14.5t63.5 -19t63 -26t53.5 -35.5t45.5 -47.5t28 -62.5t11 -81q0 -60 -22 -114.5t-64.5 -99.5t-114 -71.5t-162.5 -26.5q-141 0 -240 69t-130 169z" />
<glyph unicode="t" horiz-adv-x="710" d="M61 928v110h183v217h108v-217h244v-110h-244v-619q0 -123 51 -171q40 -38 138 -39q26 0 57 3v-108q-30 -4 -60 -4h-24q-42 2 -82 8.5t-74 29.5t-59.5 57t-40 91t-14.5 133v619h-183z" />
<glyph unicode="u" horiz-adv-x="1177" d="M154 424v614h110v-614q0 -45 8.5 -89.5t30.5 -91t55.5 -81t88.5 -56.5t124 -22q86 0 154 33t107.5 85t60 109t20.5 113v614h111v-1038h-111v162q-53 -86 -139.5 -137.5t-202.5 -51.5q-87 0 -158.5 27.5t-118.5 72.5t-79.5 104.5t-46.5 121.5t-14 125z" />
<glyph unicode="v" horiz-adv-x="1064" d="M41 1038h117l374 -897l373 897h119l-434 -1038h-117z" />
<glyph unicode="w" horiz-adv-x="1548" d="M41 1038h115l307 -870l260 870h102l258 -870l308 870h116l-366 -1038h-117l-250 842l-250 -842h-116z" />
<glyph unicode="x" horiz-adv-x="968" d="M41 0l377 530l-359 508h134l292 -413l291 413h133l-358 -508l377 -530h-133l-310 438l-311 -438h-133z" />
<glyph unicode="y" horiz-adv-x="1028" d="M41 1038h117l370 -837l342 837h117l-584 -1433h-116l186 456z" />
<glyph unicode="z" horiz-adv-x="935" d="M82 0v109l594 819h-576v110h715v-110l-594 -819h613v-109h-752z" />
<glyph unicode="{" horiz-adv-x="827" d="M164 666v102q86 0 128 39.5t42 136.5v365q0 167 84.5 244t265.5 77v-108q-132 0 -187 -54.5t-55 -177.5v-346q0 -96 -37 -150.5t-112 -76.5v-2q75 -21 112 -75t37 -151v-348q0 -122 55 -175.5t187 -53.5v-111q-180 0 -265 78t-85 244v366q0 96 -42 136.5t-128 40.5z" />
<glyph unicode="|" horiz-adv-x="436" d="M164 -305v1855h108v-1855h-108z" />
<glyph unicode="}" horiz-adv-x="829" d="M143 -88q132 0 187 53.5t55 175.5v348q0 185 150 226v2q-75 22 -112.5 76.5t-37.5 150.5v346q0 123 -55 177.5t-187 54.5v108q181 0 267 -77.5t86 -243.5v-365q0 -98 41.5 -137t128.5 -39v-102q-87 0 -128.5 -40t-41.5 -137v-366q0 -165 -86.5 -243.5t-266.5 -78.5v111z " />
<glyph unicode="~" horiz-adv-x="1169" d="M143 516q59 207 254 207h2q33 0 73 -10.5t61 -19t69 -29.5q118 -56 180 -56q56 0 88.5 29.5t49.5 95.5l106 -28q-16 -61 -44 -103.5t-63 -64t-68 -30.5t-69 -9q-39 0 -83 11.5t-69.5 21.5t-72.5 32q-103 49 -158 49h-2q-60 0 -94 -29t-53 -98z" />
<glyph unicode="&#xa1;" horiz-adv-x="497" d="M164 977q0 35 25.5 60.5t60.5 25.5t59.5 -25.5t24.5 -60.5t-24.5 -60.5t-59.5 -25.5t-60.5 25.5t-25.5 60.5zM195 -395l18 1042h72l18 -1042h-108z" />
<glyph unicode="&#xa2;" horiz-adv-x="1196" d="M102 717q0 137 63.5 255.5t173.5 194t243 90.5v177h90v-174q131 -7 241.5 -72.5t180.5 -171.5l-99 -51q-58 86 -150.5 136t-201.5 50q-180 0 -305 -127t-125 -307q0 -181 125.5 -308.5t304.5 -127.5q108 0 201 50.5t151 137.5l99 -53q-70 -106 -180.5 -171.5 t-241.5 -72.5v-172h-90v176q-204 23 -342 177.5t-138 363.5z" />
<glyph unicode="&#xa3;" horiz-adv-x="1155" d="M102 0v109q32 24 52 39.5t58.5 57t61.5 82.5t41.5 106t18.5 138q0 31 -8 93h-224v92h201q-1 5 -12 43t-14 48t-11.5 43.5t-11.5 51t-8 46t-6.5 53t-1.5 49.5q0 171 110.5 288t276.5 117q139 0 238 -80t124 -213l-106 -24q-17 96 -85.5 151.5t-170.5 55.5q-121 0 -199 -84 t-78 -211q0 -39 7.5 -85t16 -78.5t24 -87t22.5 -83.5h452v-92h-434q8 -58 8 -93q0 -73 -20.5 -142t-55 -122t-67 -90t-68.5 -67v-2h820v-109h-951z" />
<glyph unicode="&#xa4;" horiz-adv-x="1026" d="M102 371l150 149q-68 84 -68 197q0 109 68 196l-150 150l64 63l149 -147q87 65 197 65q112 0 199 -65l147 147l66 -63l-150 -150q68 -91 68 -196q0 -109 -68 -197l150 -149l-66 -66l-147 150q-89 -66 -199 -66q-108 0 -197 66l-149 -150zM295 717q0 -91 63 -155t154 -64 t155 64t64 155t-64 155t-155 64t-154 -64t-63 -155z" />
<glyph unicode="&#xa5;" horiz-adv-x="1361" d="M61 1434h127l492 -816l491 816h129l-512 -832h304v-90h-357v-172h357v-92h-357v-248h-110v248h-357v92h357v172h-357v90h303z" />
<glyph unicode="&#xa6;" horiz-adv-x="438" d="M164 -305v727h110v-727h-110zM164 823v727h110v-727h-110z" />
<glyph unicode="&#xa7;" horiz-adv-x="1142" d="M143 645q0 173 189 283q-82 79 -82 196q0 79 31.5 144t84 105.5t116.5 62.5t132 22q73 0 134 -18.5t99 -45t67 -63.5t42.5 -65t22.5 -58l-105 -28q-9 28 -24.5 53.5t-44.5 54t-78 45.5t-113 17q-103 0 -179.5 -60t-76.5 -166q0 -37 14 -66.5t35 -51t61.5 -42t79 -35 t101.5 -34.5q45 -15 72 -25t68.5 -28t67 -34t55.5 -41t47 -52t28.5 -63.5t11.5 -78.5q0 -177 -188 -282q84 -77 84 -197q0 -104 -55.5 -182.5t-137 -115t-172.5 -36.5q-74 0 -135 18.5t-99 45t-67 63.5t-42.5 65t-22.5 58l106 29q8 -28 23.5 -54t44 -54t78.5 -45t114 -17 q103 0 178.5 59.5t75.5 165.5q0 37 -13.5 66.5t-35 51t-61.5 42t-78 35.5t-100 35q-46 15 -73 24.5t-69 27.5t-67.5 34t-56 41t-47.5 52t-28.5 63.5t-11.5 78.5zM254 645q0 -41 17.5 -73t57.5 -57.5t84 -44t117 -42.5q144 -47 213 -88q148 83 148 233q0 78 -65.5 124 t-211.5 94q-144 47 -213 86q-147 -82 -147 -232z" />
<glyph unicode="&#xa8;" horiz-adv-x="864" d="M164 1327q0 34 24.5 59t59.5 25t59.5 -25t24.5 -59q0 -35 -24.5 -59.5t-59.5 -24.5t-59.5 24.5t-24.5 59.5zM535 1327q0 34 24 59t59 25q34 0 58 -25t24 -59q0 -35 -24 -59.5t-58 -24.5q-35 0 -59 24.5t-24 59.5z" />
<glyph unicode="&#xa9;" horiz-adv-x="1671" d="M123 717q0 145 56.5 277t152 227.5t227.5 152t277 56.5q193 0 357 -95.5t259.5 -260t95.5 -357.5t-95.5 -357.5t-259.5 -260t-357 -95.5q-145 0 -277 56.5t-227.5 152t-152 227.5t-56.5 277zM197 717q0 -130 50.5 -248.5t136.5 -204.5t204 -137t248 -51t249 51t204.5 137 t136.5 204.5t51 248.5q0 173 -86 320.5t-233.5 233t-321.5 85.5q-130 0 -248 -50.5t-204 -136.5t-136.5 -204t-50.5 -248zM473 717q0 156 106.5 269.5t258.5 113.5q88 0 162.5 -40t125.5 -110l-51 -32q-41 55 -102.5 86.5t-134.5 31.5q-129 0 -214 -92.5t-85 -226.5t85 -227 t214 -93q73 0 134.5 32t102.5 87l51 -35q-51 -68 -125.5 -107.5t-162.5 -39.5q-152 0 -258.5 113t-106.5 270z" />
<glyph unicode="&#xab;" horiz-adv-x="1050" d="M123 514l246 363h133l-246 -363l246 -362h-133zM549 514l248 363h131l-246 -363l246 -362h-131z" />
<glyph unicode="&#xad;" horiz-adv-x="983" d="M164 555v109h655v-109h-655z" />
<glyph unicode="&#xae;" horiz-adv-x="1671" d="M123 717q0 145 56.5 277t152 227.5t227.5 152t277 56.5q193 0 357 -95.5t259.5 -260t95.5 -357.5t-95.5 -357.5t-259.5 -260t-357 -95.5q-145 0 -277 56.5t-227.5 152t-152 227.5t-56.5 277zM197 717q0 -130 50.5 -248.5t136.5 -204.5t204 -137t248 -51t248 51t204 137 t136.5 204.5t50.5 248.5t-50.5 248t-136.5 204t-204 136.5t-248 50.5t-248 -50.5t-204 -136.5t-136.5 -204t-50.5 -248zM596 350v770h242q131 0 206.5 -62t75.5 -167q0 -87 -53 -145.5t-149 -77.5l245 -318h-71l-242 312h-12h-181v-312h-61zM657 723h181q105 0 163 44.5 t58 123.5t-58 123.5t-163 44.5h-181v-336z" />
<glyph unicode="&#xaf;" horiz-adv-x="815" d="M164 1272v92h487v-92h-487z" />
<glyph unicode="&#xb0;" horiz-adv-x="794" d="M102 1139q0 121 87 208t208 87q123 0 209 -86.5t86 -208.5q0 -123 -86 -210t-209 -87q-122 0 -208.5 87t-86.5 210zM195 1139q0 -85 59 -145t143 -60q85 0 145 60t60 145q0 84 -60 143t-145 59t-143.5 -58.5t-58.5 -143.5z" />
<glyph unicode="&#xb1;" horiz-adv-x="1130" d="M164 0v109h803v-109h-803zM164 682v111h346v346h108v-346h349v-111h-349v-346h-108v346h-346z" />
<glyph unicode="&#xb4;" horiz-adv-x="581" d="M164 1210l125 269h129l-187 -269h-67z" />
<glyph unicode="&#xb6;" horiz-adv-x="1198" d="M82 1130q0 136 99 220t245 84h649v-111h-172v-1505h-110v1505h-256v-1505h-111v1007q-146 0 -245 83.5t-99 221.5z" />
<glyph unicode="&#xb8;" horiz-adv-x="722" d="M164 -457l47 86q56 -27 111.5 -27.5t93 28.5t37.5 83q0 66 -54.5 90t-132.5 -12l-45 59l72 150h78l-60 -123q93 26 170.5 -21t77.5 -149q0 -68 -37 -117t-94 -69.5t-128 -15.5t-136 38z" />
<glyph unicode="&#xbb;" horiz-adv-x="1050" d="M123 152l246 362l-246 363h131l246 -363l-246 -362h-131zM549 152l246 362l-246 363h133l246 -363l-246 -362h-133z" />
<glyph unicode="&#xbf;" horiz-adv-x="894" d="M61 -41q0 44 10 86t22.5 71.5t37 64.5t41.5 54.5t47 53.5q33 37 50 57.5t42.5 57.5t38.5 69t24 77.5t13 96.5h109q-2 -63 -15.5 -120.5t-29.5 -96.5t-46 -83.5t-49 -67t-55 -62.5t-53 -61t-39 -54.5t-30.5 -67.5t-8.5 -75q0 -113 80.5 -191.5t195.5 -78.5q111 0 182 64.5 t99 158.5l107 -27q-40 -140 -145 -223.5t-243 -83.5q-160 0 -272.5 111.5t-112.5 269.5zM356 977q0 35 25.5 60.5t60.5 25.5t59.5 -25.5t24.5 -60.5t-24.5 -60.5t-59.5 -25.5t-60.5 25.5t-25.5 60.5z" />
<glyph unicode="&#xc0;" d="M61 0l535 1434h117l534 -1434h-117l-149 401h-653l-150 -401h-117zM369 512h571l-285 764zM424 1888h129l127 -268h-70z" />
<glyph unicode="&#xc1;" d="M61 0l535 1434h117l534 -1434h-117l-149 401h-653l-150 -401h-117zM369 512h571l-285 764zM629 1620l125 268h129l-187 -268h-67z" />
<glyph unicode="&#xc2;" d="M61 0l535 1434h117l534 -1434h-117l-149 401h-653l-150 -401h-117zM369 512h571l-285 764zM397 1620l211 268h92l211 -268h-94l-164 209l-161 -209h-95z" />
<glyph unicode="&#xc3;" d="M61 0l535 1434h117l534 -1434h-117l-149 401h-653l-150 -401h-117zM369 512h571l-285 764zM373 1622q11 79 51.5 122.5t105.5 43.5q44 0 127.5 -40t114.5 -40q62 0 74 84l90 -12q-12 -78 -53 -121t-107 -43q-45 0 -127 41t-114 41q-60 0 -72 -90z" />
<glyph unicode="&#xc4;" d="M61 0l535 1434h117l534 -1434h-117l-149 401h-653l-150 -401h-117zM369 512h571l-285 764zM385 1737q0 34 24.5 59t59.5 25t59.5 -25t24.5 -59q0 -35 -24.5 -59.5t-59.5 -24.5t-59.5 24.5t-24.5 59.5zM756 1737q0 34 24.5 59t59.5 25q34 0 58 -25t24 -59q0 -35 -24 -59.5 t-58 -24.5q-35 0 -59.5 24.5t-24.5 59.5z" />
<glyph unicode="&#xc5;" d="M61 0l535 1434h117l534 -1434h-117l-149 401h-653l-150 -401h-117zM369 512h571l-285 764zM436 1755q0 89 64 153t153 64q90 0 153.5 -63.5t63.5 -153.5q0 -91 -63 -154t-154 -63q-90 0 -153.5 63.5t-63.5 153.5zM528 1755q0 -53 36.5 -90t88.5 -37q53 0 90 37t37 90 q0 52 -37 88.5t-90 36.5t-89 -36t-36 -89z" />
<glyph unicode="&#xc6;" horiz-adv-x="1916" d="M61 0l715 1434h1020v-111h-663v-526h616v-109h-616v-579h682v-109h-793v401h-643l-201 -401h-117zM432 512h590v811h-182z" />
<glyph unicode="&#xc7;" horiz-adv-x="1460" d="M102 717q0 152 56 288.5t151.5 236t230 158t285.5 58.5q170 0 317 -71.5t247 -198.5l-93 -60q-85 104 -207 163t-264 59q-171 0 -312.5 -85.5t-221.5 -230.5t-80 -317q0 -173 80 -318t221.5 -230t312.5 -85q142 0 264 58.5t207 162.5l93 -61q-101 -126 -247.5 -198.5 t-316.5 -72.5h-14l-47 -98q93 26 171.5 -20.5t78.5 -147.5q0 -68 -37.5 -117t-95 -69.5t-128.5 -15.5t-137 38l48 86q57 -27 112.5 -28t93 27.5t37.5 82.5q0 67 -54.5 90.5t-131.5 -12.5l-47 59l63 132q-180 22 -325.5 125t-227.5 264t-82 348z" />
<glyph unicode="&#xc8;" horiz-adv-x="1056" d="M164 0v1434h772v-111h-664v-526h617v-109h-617v-579h682v-109h-790zM369 1888h129l127 -268h-70z" />
<glyph unicode="&#xc9;" horiz-adv-x="1056" d="M164 0v1434h772v-111h-664v-526h617v-109h-617v-579h682v-109h-790zM514 1620l125 268h129l-186 -268h-68z" />
<glyph unicode="&#xca;" horiz-adv-x="1056" d="M164 0v1434h772v-111h-664v-526h617v-109h-617v-579h682v-109h-790zM303 1620l211 268h92l211 -268h-94l-164 209l-162 -209h-94z" />
<glyph unicode="&#xcb;" horiz-adv-x="1056" d="M164 0v1434h772v-111h-664v-526h617v-109h-617v-579h682v-109h-790zM291 1737q0 34 24.5 59t59.5 25t59.5 -25t24.5 -59q0 -35 -24.5 -59.5t-59.5 -24.5t-59.5 24.5t-24.5 59.5zM662 1737q0 34 24 59t59 25q34 0 58 -25t24 -59q0 -35 -24 -59.5t-58 -24.5q-35 0 -59 24.5 t-24 59.5z" />
<glyph unicode="&#xcc;" horiz-adv-x="438" d="M10 1888h129l127 -268h-69zM164 0v1434h110v-1434h-110z" />
<glyph unicode="&#xcd;" horiz-adv-x="438" d="M164 0v1434h110v-1434h-110zM195 1620l124 268h130l-187 -268h-67z" />
<glyph unicode="&#xce;" horiz-adv-x="438" d="M-37 1620l211 268h92l211 -268h-94l-164 209l-162 -209h-94zM164 0v1434h110v-1434h-110z" />
<glyph unicode="&#xcf;" horiz-adv-x="438" d="M-49 1737q0 34 24.5 59t59.5 25t59.5 -25t24.5 -59q0 -35 -24.5 -59.5t-59.5 -24.5t-59.5 24.5t-24.5 59.5zM164 0v1434h110v-1434h-110zM322 1737q0 34 24.5 59t59.5 25q33 0 57 -25t24 -59q0 -35 -23.5 -59.5t-57.5 -24.5q-35 0 -59.5 24.5t-24.5 59.5z" />
<glyph unicode="&#xd0;" horiz-adv-x="1499" d="M61 672v90h201v672h428q121 0 230.5 -35t195.5 -99.5t149.5 -152.5t97.5 -198.5t34 -231.5t-34 -231.5t-97.5 -198.5t-149.5 -152.5t-195.5 -99.5t-230.5 -35h-428v672h-201zM371 109h319q261 0 429.5 172t168.5 436q0 262 -168.5 434t-429.5 172h-319v-561h458v-90h-458 v-563z" />
<glyph unicode="&#xd1;" horiz-adv-x="1417" d="M164 0v1434h108l873 -1248v1248h108v-1434h-108l-873 1247v-1247h-108zM428 1622q11 79 52 122.5t106 43.5q44 0 127 -40t114 -40q62 0 74 84l90 -12q-12 -78 -53 -121t-107 -43q-45 0 -127 41t-114 41q-60 0 -72 -90z" />
<glyph unicode="&#xd2;" horiz-adv-x="1652" d="M102 717q0 152 56 288.5t151.5 236t230 158t285.5 58.5t286 -58.5t231 -158t152 -236.5t56 -288q0 -203 -95 -373.5t-262 -270.5t-368 -100t-367.5 100t-261 270.5t-94.5 373.5zM211 717q0 -173 80 -318t221.5 -230t312.5 -85q172 0 314 85t222.5 230t80.5 318 q0 172 -80.5 317t-222.5 230.5t-314 85.5q-171 0 -312.5 -85.5t-221.5 -230.5t-80 -317zM616 1888h129l127 -268h-69z" />
<glyph unicode="&#xd3;" horiz-adv-x="1652" d="M102 717q0 152 56 288.5t151.5 236t230 158t285.5 58.5t286 -58.5t231 -158t152 -236.5t56 -288q0 -203 -95 -373.5t-262 -270.5t-368 -100t-367.5 100t-261 270.5t-94.5 373.5zM211 717q0 -173 80 -318t221.5 -230t312.5 -85q172 0 314 85t222.5 230t80.5 318 q0 172 -80.5 317t-222.5 230.5t-314 85.5q-171 0 -312.5 -85.5t-221.5 -230.5t-80 -317zM780 1620l125 268h129l-186 -268h-68z" />
<glyph unicode="&#xd4;" horiz-adv-x="1652" d="M102 717q0 152 56 288.5t151.5 236t230 158t285.5 58.5t286 -58.5t231 -158t152 -236.5t56 -288q0 -203 -95 -373.5t-262 -270.5t-368 -100t-367.5 100t-261 270.5t-94.5 373.5zM211 717q0 -173 80 -318t221.5 -230t312.5 -85q172 0 314 85t222.5 230t80.5 318 q0 172 -80.5 317t-222.5 230.5t-314 85.5q-171 0 -312.5 -85.5t-221.5 -230.5t-80 -317zM569 1620l211 268h92l211 -268h-94l-164 209l-161 -209h-95z" />
<glyph unicode="&#xd5;" horiz-adv-x="1652" d="M102 717q0 152 56 288.5t151.5 236t230 158t285.5 58.5t286 -58.5t231 -158t152 -236.5t56 -288q0 -203 -95 -373.5t-262 -270.5t-368 -100t-367.5 100t-261 270.5t-94.5 373.5zM211 717q0 -173 80 -318t221.5 -230t312.5 -85q172 0 314 85t222.5 230t80.5 318 q0 172 -80.5 317t-222.5 230.5t-314 85.5q-171 0 -312.5 -85.5t-221.5 -230.5t-80 -317zM545 1622q11 79 51.5 122.5t105.5 43.5q44 0 127.5 -40t114.5 -40q62 0 74 84l90 -12q-12 -78 -53 -121t-107 -43q-45 0 -127 41t-114 41q-60 0 -72 -90z" />
<glyph unicode="&#xd6;" horiz-adv-x="1652" d="M102 717q0 152 56 288.5t151.5 236t230 158t285.5 58.5t286 -58.5t231 -158t152 -236.5t56 -288q0 -203 -95 -373.5t-262 -270.5t-368 -100t-367.5 100t-261 270.5t-94.5 373.5zM211 717q0 -173 80 -318t221.5 -230t312.5 -85q172 0 314 85t222.5 230t80.5 318 q0 172 -80.5 317t-222.5 230.5t-314 85.5q-171 0 -312.5 -85.5t-221.5 -230.5t-80 -317zM557 1737q0 34 24.5 59t59.5 25t59.5 -25t24.5 -59q0 -35 -24.5 -59.5t-59.5 -24.5t-59.5 24.5t-24.5 59.5zM928 1737q0 34 24.5 59t59.5 25q34 0 58 -25t24 -59q0 -35 -24 -59.5 t-58 -24.5q-35 0 -59.5 24.5t-24.5 59.5z" />
<glyph unicode="&#xd7;" horiz-adv-x="931" d="M143 365l246 245l-246 244l78 78l244 -246l246 246l77 -78l-245 -244l245 -245l-77 -78l-246 245l-244 -245z" />
<glyph unicode="&#xd8;" horiz-adv-x="1652" d="M102 717q0 151 56 288t152 236.5t231 158t286 58.5q149 0 281 -56t231 -157l129 119l62 -68l-131 -120q153 -202 153 -459q0 -203 -95 -373.5t-262 -270.5t-368 -100q-149 0 -281 56.5t-231 158.5l-129 -118l-61 67l131 119q-154 204 -154 461zM213 717q0 -219 125 -385 l919 839q-83 85 -194 132t-236 47q-171 0 -312.5 -85.5t-221.5 -230.5t-80 -317zM397 262q83 -85 193.5 -131.5t236.5 -46.5q171 0 312.5 85t222 230t80.5 318q0 219 -125 385z" />
<glyph unicode="&#xd9;" horiz-adv-x="1343" d="M164 535v899h108v-899q0 -208 106 -329.5t294 -121.5q187 0 292 121t105 330v899h111v-899q0 -255 -138 -408.5t-370 -153.5q-233 0 -370.5 153.5t-137.5 408.5zM481 1888h129l127 -268h-69z" />
<glyph unicode="&#xda;" horiz-adv-x="1343" d="M164 535v899h108v-899q0 -208 106 -329.5t294 -121.5q187 0 292 121t105 330v899h111v-899q0 -255 -138 -408.5t-370 -153.5q-233 0 -370.5 153.5t-137.5 408.5zM637 1620l125 268h129l-186 -268h-68z" />
<glyph unicode="&#xdb;" horiz-adv-x="1343" d="M164 535v899h108v-899q0 -208 106 -329.5t294 -121.5q187 0 292 121t105 330v899h111v-899q0 -255 -138 -408.5t-370 -153.5q-233 0 -370.5 153.5t-137.5 408.5zM416 1620l211 268h92l211 -268h-94l-164 209l-162 -209h-94z" />
<glyph unicode="&#xdc;" horiz-adv-x="1343" d="M164 535v899h108v-899q0 -208 106 -329.5t294 -121.5q187 0 292 121t105 330v899h111v-899q0 -255 -138 -408.5t-370 -153.5q-233 0 -370.5 153.5t-137.5 408.5zM403 1737q0 34 24.5 59t59.5 25t59.5 -25t24.5 -59q0 -35 -24.5 -59.5t-59.5 -24.5t-59.5 24.5t-24.5 59.5z M774 1737q0 34 24.5 59t59.5 25q34 0 58 -25t24 -59q0 -35 -24 -59.5t-58 -24.5q-35 0 -59.5 24.5t-24.5 59.5z" />
<glyph unicode="&#xdd;" horiz-adv-x="1361" d="M61 1434h129l492 -816l492 816h126l-565 -918v-516h-108v516zM655 1620l125 268h129l-186 -268h-68z" />
<glyph unicode="&#xde;" horiz-adv-x="1165" d="M164 0v1434h108v-273h320q229 0 360 -122t131 -322q0 -201 -130.5 -323t-360.5 -122h-320v-272h-108zM272 381h320q185 0 284 90t99 246q0 155 -98.5 244.5t-284.5 89.5h-320v-670z" />
<glyph unicode="&#xdf;" horiz-adv-x="1140" d="M154 0v1030q0 168 109 289t290 121q88 0 163 -32.5t123.5 -85.5t75.5 -119t27 -136q0 -104 -47 -184t-131 -127q131 -36 213 -123.5t82 -231.5q0 -139 -69.5 -239t-188 -142t-262.5 -20v111q176 -28 292.5 53t116.5 237q0 73 -29 128.5t-69.5 85t-96.5 47.5t-99 23t-87 5 h-28v101h14q128 0 204.5 72.5t76.5 203.5q0 103 -76 182.5t-205 79.5q-90 0 -158 -43t-100.5 -110t-32.5 -146v-1030h-108z" />
<glyph unicode="&#xe0;" horiz-adv-x="1067" d="M82 283q0 67 24 119t57 85.5t95 56.5t109.5 34.5t130.5 17.5t129 7t132 1h13q5 0 16.5 -1t16.5 -1v70q0 57 -14 105t-44 89t-84 64.5t-128 23.5q-65 0 -124 -18.5t-93 -39t-78 -54.5l-88 67q78 68 168 111t215 43q174 0 276 -104.5t102 -286.5v-672h-108v160 q-131 -187 -363 -187q-156 0 -258 87.5t-102 222.5zM195 283q0 -95 73.5 -147t173.5 -52q82 0 150 23.5t110 61t66.5 73.5t36.5 71v181h-35q-210 0 -258 -3q-234 -15 -294 -116q-23 -39 -23 -92zM348 1479h129l127 -269h-69z" />
<glyph unicode="&#xe1;" horiz-adv-x="1067" d="M82 283q0 67 24 119t57 85.5t95 56.5t109.5 34.5t130.5 17.5t129 7t132 1h13q5 0 16.5 -1t16.5 -1v70q0 57 -14 105t-44 89t-84 64.5t-128 23.5q-65 0 -124 -18.5t-93 -39t-78 -54.5l-88 67q78 68 168 111t215 43q174 0 276 -104.5t102 -286.5v-672h-108v160 q-131 -187 -363 -187q-156 0 -258 87.5t-102 222.5zM195 283q0 -95 73.5 -147t173.5 -52q82 0 150 23.5t110 61t66.5 73.5t36.5 71v181h-35q-210 0 -258 -3q-234 -15 -294 -116q-23 -39 -23 -92zM473 1210l125 269h129l-186 -269h-68z" />
<glyph unicode="&#xe2;" horiz-adv-x="1067" d="M82 283q0 67 24 119t57 85.5t95 56.5t109.5 34.5t130.5 17.5t129 7t132 1h13q5 0 16.5 -1t16.5 -1v70q0 57 -14 105t-44 89t-84 64.5t-128 23.5q-65 0 -124 -18.5t-93 -39t-78 -54.5l-88 67q78 68 168 111t215 43q174 0 276 -104.5t102 -286.5v-672h-108v160 q-131 -187 -363 -187q-156 0 -258 87.5t-102 222.5zM195 283q0 -95 73.5 -147t173.5 -52q82 0 150 23.5t110 61t66.5 73.5t36.5 71v181h-35q-210 0 -258 -3q-234 -15 -294 -116q-23 -39 -23 -92zM281 1210l211 269h92l211 -269h-95l-163 209l-162 -209h-94z" />
<glyph unicode="&#xe3;" horiz-adv-x="1067" d="M82 283q0 67 24 119t57 85.5t95 56.5t109.5 34.5t130.5 17.5t129 7t132 1h13q5 0 16.5 -1t16.5 -1v70q0 57 -14 105t-44 89t-84 64.5t-128 23.5q-65 0 -124 -18.5t-93 -39t-78 -54.5l-88 67q78 68 168 111t215 43q174 0 276 -104.5t102 -286.5v-672h-108v160 q-131 -187 -363 -187q-156 0 -258 87.5t-102 222.5zM195 283q0 -95 73.5 -147t173.5 -52q82 0 150 23.5t110 61t66.5 73.5t36.5 71v181h-35q-210 0 -258 -3q-234 -15 -294 -116q-23 -39 -23 -92zM256 1212q11 79 52 122.5t106 43.5q44 0 127 -40t114 -40q62 0 74 84l90 -12 q-12 -78 -53 -121t-107 -43q-45 0 -127 41t-114 41q-60 0 -72 -90z" />
<glyph unicode="&#xe4;" horiz-adv-x="1067" d="M82 283q0 67 24 119t57 85.5t95 56.5t109.5 34.5t130.5 17.5t129 7t132 1h13q5 0 16.5 -1t16.5 -1v70q0 57 -14 105t-44 89t-84 64.5t-128 23.5q-65 0 -124 -18.5t-93 -39t-78 -54.5l-88 67q78 68 168 111t215 43q174 0 276 -104.5t102 -286.5v-672h-108v160 q-131 -187 -363 -187q-156 0 -258 87.5t-102 222.5zM195 283q0 -95 73.5 -147t173.5 -52q82 0 150 23.5t110 61t66.5 73.5t36.5 71v181h-35q-210 0 -258 -3q-234 -15 -294 -116q-23 -39 -23 -92zM270 1327q0 34 24.5 59t59.5 25t59.5 -25t24.5 -59q0 -35 -24.5 -59.5 t-59.5 -24.5t-59.5 24.5t-24.5 59.5zM641 1327q0 34 24.5 59t59.5 25q34 0 58 -25t24 -59q0 -35 -24 -59.5t-58 -24.5q-35 0 -59.5 24.5t-24.5 59.5z" />
<glyph unicode="&#xe5;" horiz-adv-x="1067" d="M82 283q0 67 24 119t57 85.5t95 56.5t109.5 34.5t130.5 17.5t129 7t132 1h13q5 0 16.5 -1t16.5 -1v70q0 57 -14 105t-44 89t-84 64.5t-128 23.5q-65 0 -124 -18.5t-93 -39t-78 -54.5l-88 67q78 68 168 111t215 43q174 0 276 -104.5t102 -286.5v-672h-108v160 q-131 -187 -363 -187q-156 0 -258 87.5t-102 222.5zM195 283q0 -95 73.5 -147t173.5 -52q82 0 150 23.5t110 61t66.5 73.5t36.5 71v181h-35q-210 0 -258 -3q-234 -15 -294 -116q-23 -39 -23 -92zM322 1366q0 89 64 153t153 64q90 0 153.5 -63.5t63.5 -153.5q0 -91 -63 -154 t-154 -63q-90 0 -153.5 63.5t-63.5 153.5zM414 1366q0 -53 36.5 -90t88.5 -37q53 0 90 37.5t37 89.5t-37 88.5t-90 36.5t-89 -36.5t-36 -88.5z" />
<glyph unicode="&#xe6;" horiz-adv-x="1869" d="M82 264q0 65 23 115t53 82.5t90 55t103.5 33.5t126 16.5t124 6t128.5 0.5h42h33v99q0 118 -72.5 200t-216.5 82q-93 0 -160 -30t-133 -82l-90 67q80 68 170 111t213 43q134 0 233 -63t140 -175q66 110 174.5 174t241.5 64q221 0 357.5 -166.5t123.5 -433.5h-868 q19 -163 132 -271t275 -108q100 0 175 36.5t142 112.5l93 -59q-162 -201 -410 -201q-143 0 -260 70t-186 190q-23 -47 -58 -89t-87.5 -82.5t-128 -64.5t-163.5 -24q-158 0 -259 79t-101 212zM195 264q0 -93 71.5 -136.5t175.5 -43.5q71 0 131 18.5t99 45.5t68.5 61.5 t44 63.5t20.5 55v137h-35q-25 0 -73.5 0.5t-79 1t-77 -1t-77 -4.5t-70.5 -9.5t-65.5 -16t-53 -25t-43.5 -36t-26 -48.5t-10 -62zM918 573h755q-17 171 -118 276t-250 105q-158 0 -263.5 -109t-123.5 -272z" />
<glyph unicode="&#xe7;" horiz-adv-x="1134" d="M82 518q0 148 72 273.5t196 198.5t271 73q139 0 258 -66t192 -178l-96 -53q-60 87 -153 137.5t-201 50.5q-180 0 -305.5 -128t-125.5 -308t125.5 -307t305.5 -127q108 0 201 50t153 136l96 -51q-74 -113 -193 -179.5t-257 -66.5q-21 0 -31 2l-49 -100q95 26 172.5 -20.5 t77.5 -147.5q0 -68 -37.5 -117t-95 -69.5t-128.5 -15.5t-137 38l47 86q57 -27 113 -28t93.5 27.5t37.5 82.5q0 67 -55 90.5t-131 -12.5l-47 59l65 136q-188 37 -311 187t-123 347z" />
<glyph unicode="&#xe8;" horiz-adv-x="1171" d="M82 518q0 146 65.5 271t184 199.5t262.5 74.5q222 0 364 -167.5t129 -432.5h-892q19 -161 137.5 -270t281.5 -109q206 0 334 149l94 -59q-162 -201 -428 -201q-147 0 -269.5 73.5t-192.5 198.5t-70 273zM195 573h780q-19 170 -125 275.5t-256 105.5q-159 0 -270 -109.5 t-129 -271.5zM395 1479h129l127 -269h-69z" />
<glyph unicode="&#xe9;" horiz-adv-x="1171" d="M82 518q0 146 65.5 271t184 199.5t262.5 74.5q222 0 364 -167.5t129 -432.5h-892q19 -161 137.5 -270t281.5 -109q206 0 334 149l94 -59q-162 -201 -428 -201q-147 0 -269.5 73.5t-192.5 198.5t-70 273zM195 573h780q-19 170 -125 275.5t-256 105.5q-159 0 -270 -109.5 t-129 -271.5zM541 1210l125 269h129l-187 -269h-67z" />
<glyph unicode="&#xea;" horiz-adv-x="1171" d="M82 518q0 146 65.5 271t184 199.5t262.5 74.5q222 0 364 -167.5t129 -432.5h-892q19 -161 137.5 -270t281.5 -109q206 0 334 149l94 -59q-162 -201 -428 -201q-147 0 -269.5 73.5t-192.5 198.5t-70 273zM195 573h780q-19 170 -125 275.5t-256 105.5q-159 0 -270 -109.5 t-129 -271.5zM328 1210l211 269h92l211 -269h-94l-164 209l-162 -209h-94z" />
<glyph unicode="&#xeb;" horiz-adv-x="1171" d="M82 518q0 146 65.5 271t184 199.5t262.5 74.5q222 0 364 -167.5t129 -432.5h-892q19 -161 137.5 -270t281.5 -109q206 0 334 149l94 -59q-162 -201 -428 -201q-147 0 -269.5 73.5t-192.5 198.5t-70 273zM195 573h780q-19 170 -125 275.5t-256 105.5q-159 0 -270 -109.5 t-129 -271.5zM317 1327q0 34 24.5 59t59.5 25t59.5 -25t24.5 -59q0 -35 -24.5 -59.5t-59.5 -24.5t-59.5 24.5t-24.5 59.5zM688 1327q0 34 24.5 59t59.5 25q34 0 58 -25t24 -59q0 -35 -24 -59.5t-58 -24.5q-35 0 -59.5 24.5t-24.5 59.5z" />
<glyph unicode="&#xec;" horiz-adv-x="417" d="M-20 1479h129l127 -269h-70zM154 0v1038h110v-1038h-110z" />
<glyph unicode="&#xed;" horiz-adv-x="417" d="M154 0v1038h110v-1038h-110zM184 1210l125 269h129l-186 -269h-68z" />
<glyph unicode="&#xee;" horiz-adv-x="417" d="M-47 1210l211 269h92l211 -269h-94l-164 209l-162 -209h-94zM154 0v1038h110v-1038h-110z" />
<glyph unicode="&#xef;" horiz-adv-x="417" d="M-59 1327q0 34 24.5 59t59.5 25t59.5 -25t24.5 -59q0 -35 -24.5 -59.5t-59.5 -24.5t-59.5 24.5t-24.5 59.5zM154 0v1038h110v-1038h-110zM311 1327q0 34 24.5 59t59.5 25q34 0 58 -25t24 -59q0 -35 -24 -59.5t-58 -24.5q-35 0 -59.5 24.5t-24.5 59.5z" />
<glyph unicode="&#xf0;" horiz-adv-x="1167" d="M82 469q0 136 66.5 250t181 180t250.5 66q206 0 335 -148l5 2q-93 213 -279 387l-285 -137l-39 82l248 121q-120 95 -248 151l97 66q141 -72 254 -168l217 106l39 -81l-183 -91q159 -154 251.5 -349t92.5 -419q0 -220 -145 -367t-360 -147q-136 0 -250.5 66t-181 180 t-66.5 250zM190 469q0 -161 113.5 -273t276.5 -112q162 0 276.5 112t114.5 273q0 162 -114.5 274.5t-276.5 112.5q-163 0 -276.5 -112.5t-113.5 -274.5z" />
<glyph unicode="&#xf1;" horiz-adv-x="1175" d="M154 0v1038h108v-164q118 189 344 189q86 0 157.5 -27.5t118.5 -72.5t79.5 -104.5t46.5 -121.5t14 -125v-612h-109v612q0 46 -8.5 90.5t-30.5 91t-55.5 81.5t-88.5 57t-124 22q-86 0 -154.5 -33t-108.5 -85t-60.5 -110t-20.5 -114v-612h-108zM307 1212q11 79 52 122.5 t106 43.5q44 0 127.5 -40t114.5 -40q61 0 73 84l90 -12q-12 -78 -52.5 -121t-106.5 -43q-45 0 -127.5 41t-114.5 41q-60 0 -72 -90z" />
<glyph unicode="&#xf2;" horiz-adv-x="1241" d="M82 518q0 148 72 273.5t196 198.5t271 73q148 0 272 -73t195 -198.5t71 -273.5q0 -147 -71 -272.5t-195 -199t-272 -73.5q-147 0 -271 73.5t-196 199t-72 272.5zM190 518q0 -180 125.5 -307t305.5 -127t305 127t125 307q0 181 -125.5 308.5t-304.5 127.5 q-180 0 -305.5 -128t-125.5 -308zM410 1479h129l127 -269h-70z" />
<glyph unicode="&#xf3;" horiz-adv-x="1241" d="M82 518q0 148 72 273.5t196 198.5t271 73q148 0 272 -73t195 -198.5t71 -273.5q0 -147 -71 -272.5t-195 -199t-272 -73.5q-147 0 -271 73.5t-196 199t-72 272.5zM190 518q0 -180 125.5 -307t305.5 -127t305 127t125 307q0 181 -125.5 308.5t-304.5 127.5 q-180 0 -305.5 -128t-125.5 -308zM575 1210l125 269h129l-186 -269h-68z" />
<glyph unicode="&#xf4;" horiz-adv-x="1241" d="M82 518q0 148 72 273.5t196 198.5t271 73q148 0 272 -73t195 -198.5t71 -273.5q0 -147 -71 -272.5t-195 -199t-272 -73.5q-147 0 -271 73.5t-196 199t-72 272.5zM190 518q0 -180 125.5 -307t305.5 -127t305 127t125 307q0 181 -125.5 308.5t-304.5 127.5 q-180 0 -305.5 -128t-125.5 -308zM365 1210l210 269h93l211 -269h-95l-163 209l-162 -209h-94z" />
<glyph unicode="&#xf5;" horiz-adv-x="1241" d="M82 518q0 148 72 273.5t196 198.5t271 73q148 0 272 -73t195 -198.5t71 -273.5q0 -147 -71 -272.5t-195 -199t-272 -73.5q-147 0 -271 73.5t-196 199t-72 272.5zM190 518q0 -180 125.5 -307t305.5 -127t305 127t125 307q0 181 -125.5 308.5t-304.5 127.5 q-180 0 -305.5 -128t-125.5 -308zM338 1212q11 79 52 122.5t106 43.5q44 0 127 -40t114 -40q62 0 74 84l90 -12q-12 -78 -53 -121t-107 -43q-45 0 -127 41t-114 41q-60 0 -72 -90z" />
<glyph unicode="&#xf6;" horiz-adv-x="1241" d="M82 518q0 148 72 273.5t196 198.5t271 73q148 0 272 -73t195 -198.5t71 -273.5q0 -147 -71 -272.5t-195 -199t-272 -73.5q-147 0 -271 73.5t-196 199t-72 272.5zM190 518q0 -180 125.5 -307t305.5 -127t305 127t125 307q0 181 -125.5 308.5t-304.5 127.5 q-180 0 -305.5 -128t-125.5 -308zM352 1327q0 34 24.5 59t59.5 25t59.5 -25t24.5 -59q0 -35 -24.5 -59.5t-59.5 -24.5t-59.5 24.5t-24.5 59.5zM723 1327q0 34 24.5 59t59.5 25q34 0 58 -25t24 -59q0 -35 -24 -59.5t-58 -24.5q-35 0 -59.5 24.5t-24.5 59.5z" />
<glyph unicode="&#xf7;" horiz-adv-x="1130" d="M164 555v109h803v-109h-803zM479 223q0 35 25.5 60.5t60.5 25.5t60.5 -25.5t25.5 -60.5t-25.5 -60.5t-60.5 -25.5t-60.5 25.5t-25.5 60.5zM479 995q0 35 25.5 60.5t60.5 25.5t60.5 -25.5t25.5 -60.5t-25.5 -60.5t-60.5 -25.5t-60.5 25.5t-25.5 60.5z" />
<glyph unicode="&#xf8;" horiz-adv-x="1241" d="M82 518q0 148 72 273.5t196 198.5t271 73q214 0 368 -148l107 99l61 -68l-106 -98q110 -145 110 -330q0 -147 -71.5 -272.5t-196 -199t-272.5 -73.5q-211 0 -369 148l-105 -96l-61 67l107 96q-111 146 -111 330zM190 518q0 -140 82 -256l637 580q-122 112 -288 112 q-180 0 -305.5 -128t-125.5 -308zM334 195q121 -111 287 -111q180 0 305 127t125 307q0 140 -82 256z" />
<glyph unicode="&#xf9;" horiz-adv-x="1177" d="M154 424v614h110v-614q0 -45 8.5 -89.5t30.5 -91t55.5 -81t88.5 -56.5t124 -22q86 0 154 33t107.5 85t60 109t20.5 113v614h111v-1038h-111v162q-53 -86 -139.5 -137.5t-202.5 -51.5q-87 0 -158.5 27.5t-118.5 72.5t-79.5 104.5t-46.5 121.5t-14 125zM399 1479h129 l127 -269h-69z" />
<glyph unicode="&#xfa;" horiz-adv-x="1177" d="M154 424v614h110v-614q0 -45 8.5 -89.5t30.5 -91t55.5 -81t88.5 -56.5t124 -22q86 0 154 33t107.5 85t60 109t20.5 113v614h111v-1038h-111v162q-53 -86 -139.5 -137.5t-202.5 -51.5q-87 0 -158.5 27.5t-118.5 72.5t-79.5 104.5t-46.5 121.5t-14 125zM563 1210l125 269 h129l-186 -269h-68z" />
<glyph unicode="&#xfb;" horiz-adv-x="1177" d="M154 424v614h110v-614q0 -45 8.5 -89.5t30.5 -91t55.5 -81t88.5 -56.5t124 -22q86 0 154 33t107.5 85t60 109t20.5 113v614h111v-1038h-111v162q-53 -86 -139.5 -137.5t-202.5 -51.5q-87 0 -158.5 27.5t-118.5 72.5t-79.5 104.5t-46.5 121.5t-14 125zM332 1210l211 269 h92l211 -269h-94l-164 209l-162 -209h-94z" />
<glyph unicode="&#xfc;" horiz-adv-x="1177" d="M154 424v614h110v-614q0 -45 8.5 -89.5t30.5 -91t55.5 -81t88.5 -56.5t124 -22q86 0 154 33t107.5 85t60 109t20.5 113v614h111v-1038h-111v162q-53 -86 -139.5 -137.5t-202.5 -51.5q-87 0 -158.5 27.5t-118.5 72.5t-79.5 104.5t-46.5 121.5t-14 125zM319 1327 q0 34 24.5 59t59.5 25t59.5 -25t24.5 -59q0 -35 -24.5 -59.5t-59.5 -24.5t-59.5 24.5t-24.5 59.5zM690 1327q0 34 24.5 59t59.5 25q34 0 58 -25t24 -59q0 -35 -24 -59.5t-58 -24.5q-35 0 -59.5 24.5t-24.5 59.5z" />
<glyph unicode="&#xfd;" horiz-adv-x="1028" d="M41 1038h117l370 -837l342 837h117l-584 -1433h-116l186 456zM489 1210l125 269h129l-186 -269h-68z" />
<glyph unicode="&#xfe;" horiz-adv-x="1271" d="M154 -395v1829h108v-592q66 104 172 162.5t238 58.5q146 0 265.5 -73t186 -198t66.5 -274q0 -148 -66.5 -273t-186 -198.5t-265.5 -73.5q-131 0 -237 59.5t-173 162.5v-590h-108zM262 518q0 -182 116 -308t294 -126q117 0 211.5 58.5t146 157.5t51.5 218 q0 183 -116 309.5t-293 126.5q-117 0 -211.5 -59t-146.5 -158.5t-52 -218.5z" />
<glyph unicode="&#xff;" horiz-adv-x="1028" d="M41 1038h117l370 -837l342 837h117l-584 -1433h-116l186 456zM246 1327q0 34 24.5 59t59.5 25t59.5 -25t24.5 -59q0 -35 -24.5 -59.5t-59.5 -24.5t-59.5 24.5t-24.5 59.5zM616 1327q0 34 24.5 59t59.5 25q34 0 58 -25t24 -59q0 -35 -24 -59.5t-58 -24.5q-35 0 -59.5 24.5 t-24.5 59.5z" />
<glyph unicode="&#x152;" horiz-adv-x="1912" d="M102 717q0 121 34 231.5t97.5 198.5t149.5 152.5t195.5 99.5t230.5 35h983v-111h-664v-526h617v-109h-617v-579h682v-109h-1001q-121 0 -230.5 35t-195.5 99.5t-149.5 152.5t-97.5 198.5t-34 231.5zM211 717q0 -264 168.5 -436t429.5 -172h209v1214h-209 q-261 0 -429.5 -172t-168.5 -434z" />
<glyph unicode="&#x153;" horiz-adv-x="2091" d="M82 518q0 149 68.5 274t190 198t269.5 73q153 0 278 -80.5t191 -214.5q60 134 178 214.5t269 80.5q221 0 357.5 -166.5t123.5 -433.5h-868q19 -163 132.5 -271t276.5 -108q100 0 175.5 36.5t140.5 112.5l92 -59q-162 -201 -408 -201q-156 0 -280 82t-187 217 q-66 -135 -191 -217t-280 -82q-147 0 -269 73.5t-190.5 198.5t-68.5 273zM193 518q0 -182 119.5 -308t297.5 -126t297 126t119 308t-119 309t-297 127t-297.5 -127t-119.5 -309zM1139 573h757q-19 171 -119.5 276t-250.5 105q-157 0 -263 -109t-124 -272z" />
<glyph unicode="&#x178;" horiz-adv-x="1361" d="M61 1434h129l492 -816l492 816h126l-565 -918v-516h-108v516zM412 1737q0 34 24.5 59t59.5 25t59.5 -25t24.5 -59q0 -35 -24.5 -59.5t-59.5 -24.5t-59.5 24.5t-24.5 59.5zM782 1737q0 34 24.5 59t59.5 25q34 0 58 -25t24 -59q0 -35 -24 -59.5t-58 -24.5q-35 0 -59.5 24.5 t-24.5 59.5z" />
<glyph unicode="&#x2c6;" horiz-adv-x="841" d="M164 1210l211 269h92l211 -269h-94l-164 209l-162 -209h-94z" />
<glyph unicode="&#x2dc;" horiz-adv-x="890" d="M164 1212q11 79 52 122.5t106 43.5q44 0 127 -40t114 -40q62 0 74 84l90 -12q-12 -78 -53 -121t-107 -43q-45 0 -127 41t-114 41q-60 0 -72 -90z" />
<glyph unicode="&#x2000;" horiz-adv-x="986" />
<glyph unicode="&#x2001;" horiz-adv-x="1972" />
<glyph unicode="&#x2002;" horiz-adv-x="986" />
<glyph unicode="&#x2003;" horiz-adv-x="1972" />
<glyph unicode="&#x2004;" horiz-adv-x="657" />
<glyph unicode="&#x2005;" horiz-adv-x="493" />
<glyph unicode="&#x2006;" horiz-adv-x="328" />
<glyph unicode="&#x2007;" horiz-adv-x="328" />
<glyph unicode="&#x2008;" horiz-adv-x="246" />
<glyph unicode="&#x2009;" horiz-adv-x="394" />
<glyph unicode="&#x200a;" horiz-adv-x="109" />
<glyph unicode="&#x2010;" horiz-adv-x="983" d="M164 555v109h655v-109h-655z" />
<glyph unicode="&#x2011;" horiz-adv-x="983" d="M164 555v109h655v-109h-655z" />
<glyph unicode="&#x2012;" horiz-adv-x="983" d="M164 555v109h655v-109h-655z" />
<glyph unicode="&#x2013;" horiz-adv-x="1095" d="M164 555v109h768v-109h-768z" />
<glyph unicode="&#x2014;" horiz-adv-x="1202" d="M164 555v109h874v-109h-874z" />
<glyph unicode="&#x2018;" horiz-adv-x="485" d="M102 1075l228 365l53 -31l-178 -391z" />
<glyph unicode="&#x2019;" horiz-adv-x="485" d="M102 1049l179 391l102 -58l-227 -364z" />
<glyph unicode="&#x201a;" horiz-adv-x="444" d="M61 -201l179 394l102 -60l-227 -364z" />
<glyph unicode="&#x201c;" horiz-adv-x="823" d="M102 1075l228 365l53 -31l-178 -391zM440 1075l228 365l53 -31l-178 -391z" />
<glyph unicode="&#x201d;" horiz-adv-x="823" d="M102 1049l181 391l100 -58l-225 -364zM440 1049l178 391l103 -58l-227 -364z" />
<glyph unicode="&#x201e;" horiz-adv-x="782" d="M61 -201l179 394l102 -60l-225 -364zM399 -201l179 394l102 -60l-227 -364z" />
<glyph unicode="&#x2022;" horiz-adv-x="585" d="M143 645q0 63 43.5 106.5t106.5 43.5q62 0 105.5 -43.5t43.5 -106.5q0 -61 -43.5 -104t-105.5 -43q-63 0 -106.5 42.5t-43.5 104.5z" />
<glyph unicode="&#x2026;" horiz-adv-x="1130" d="M102 59q0 35 25.5 60.5t60.5 25.5t60.5 -25.5t25.5 -60.5t-25.5 -60.5t-60.5 -25.5t-60.5 25.5t-25.5 60.5zM479 59q0 35 25.5 60.5t60.5 25.5t60.5 -25.5t25.5 -60.5t-25.5 -60.5t-60.5 -25.5t-60.5 25.5t-25.5 60.5zM856 59q0 35 25.5 60.5t60.5 25.5t60.5 -25.5 t25.5 -60.5t-25.5 -60.5t-60.5 -25.5t-60.5 25.5t-25.5 60.5z" />
<glyph unicode="&#x202f;" horiz-adv-x="394" />
<glyph unicode="&#x2039;" horiz-adv-x="624" d="M123 514l248 363h131l-246 -363l246 -362h-131z" />
<glyph unicode="&#x203a;" horiz-adv-x="624" d="M123 152l246 362l-246 363h133l246 -363l-246 -362h-133z" />
<glyph unicode="&#x205f;" horiz-adv-x="493" />
<glyph unicode="&#x20ac;" horiz-adv-x="1576" d="M61 539v92h152q-4 58 -4 86t4 86h-152v90h168q58 248 252.5 406.5t452.5 158.5q169 0 315 -71.5t246 -198.5l-92 -60q-86 104 -207 163t-262 59q-213 0 -374 -127.5t-218 -329.5h670v-90h-688q-5 -73 -5 -86t5 -86h688v-92h-670q57 -200 218 -327.5t374 -127.5 q142 0 263 58.5t206 162.5l92 -61q-101 -126 -247 -198.5t-314 -72.5q-257 0 -452 159.5t-253 406.5h-168z" />
<glyph unicode="&#x25fc;" horiz-adv-x="1034" d="M0 0v1034h1034v-1034h-1034z" />
</font>
</defs>
</svg>
